<svg xmlns="http://www.w3.org/2000/svg" width="658.2830810546875" height="98.79387664794922" viewBox="-676.0567626953125 -125.24910736083984 658.2830810546875 98.79387664794922"><title>Neo4j Graph Visualization</title><desc>Created using Neo4j (http://www.neo4j.com/)</desc><g class="layer relationships"><g class="relationship" transform="translate(-46.77365062875213 -86.58232667040616) rotate(538.0445823283653)"><path class="outline" fill="#A5ABB6" stroke="none" d="M 21.40063509461097,12.933012701892217 L 21.90063509461097,12.06698729810778 A 139.76494962722458 139.76494962722458 0 0 0 79.6145505126396,30.261207803742522 L 79.52748605600694,31.257410484119973 A 140.76494962722458 140.76494962722458 0 0 1 21.40063509461097,12.933012701892217 Z M 98.91376043399447,31.611217310519393 L 98.86310399896107,30.612501171874513 A 139.76494962722458 139.76494962722458 0 0 0 157.20246760888196,14.53629682269869 L 155.79826667277152,11.885217847823256 L 163.6223520396097,11.701674467586923 L 159.07473552369586,18.07106878919927 L 157.67053458758542,15.419989814323836 A 140.76494962722458 140.76494962722458 0 0 1 98.91376043399447,31.611217310519393"/><text text-anchor="middle" pointer-events="none" font-size="8px" fill="#000000" x="89.22364783513542" y="34.268586359416176" transform="rotate(180 89.22364783513542 31.268586359416176)" font-family="sans-serif">trek</text></g><g class="relationship" transform="translate(-232.38018210074776 -80.245397990442) rotate(535.6170132654481)"><path class="outline" fill="#A5ABB6" stroke="none" d="M 25 0.5 L 60.468596874069945 0.5 L 60.468596874069945 -0.5 L 25 -0.5 Z M 79.80453437406995 0.5 L 115.27313124813989 0.5 L 115.27313124813989 3.5 L 122.27313124813989 0 L 115.27313124813989 -3.5 L 115.27313124813989 -0.5 L 79.80453437406995 -0.5 Z"/><text text-anchor="middle" pointer-events="none" font-size="8px" fill="#000000" x="70.13656562406995" y="3" transform="rotate(180 70.13656562406995 0)" font-family="sans-serif">trek</text></g><g class="relationship" transform="translate(-379.22261146050744 -68.99034901872155) rotate(537.1069926820394)"><path class="outline" fill="#A5ABB6" stroke="none" d="M 25 0.5 L 120.91999168922001 0.5 L 120.91999168922001 -0.5 L 25 -0.5 Z M 140.25592918922 0.5 L 236.17592087844002 0.5 L 236.17592087844002 3.5 L 243.17592087844002 0 L 236.17592087844002 -3.5 L 236.17592087844002 -0.5 L 140.25592918922 -0.5 Z"/><text text-anchor="middle" pointer-events="none" font-size="8px" fill="#000000" x="130.58796043922" y="3" transform="rotate(180 130.58796043922 0)" font-family="sans-serif">trek</text></g><g class="relationship" transform="translate(-46.77365062875213 -86.58232667040616) rotate(538.0445823283653)"><path class="outline" fill="#A5ABB6" stroke="none" d="M 25 0.5 L 78.35147904011916 0.5 L 78.35147904011916 -0.5 L 25 -0.5 Z M 100.36319779011916 0.5 L 153.71467683023832 0.5 L 153.71467683023832 3.5 L 160.71467683023832 0 L 153.71467683023832 -3.5 L 153.71467683023832 -0.5 L 100.36319779011916 -0.5 Z"/><text text-anchor="middle" pointer-events="none" font-size="8px" fill="#000000" x="89.35733841511916" y="3" transform="rotate(180 89.35733841511916 0)" font-family="sans-serif">road</text></g><g class="relationship" transform="translate(-46.77365062875213 -86.58232667040616) rotate(538.0445823283653)"><path class="outline" fill="#A5ABB6" stroke="none" d="M 21.40063509461097,-12.933012701892217 L 21.90063509461097,-12.06698729810778 A 139.76494962722458 139.76494962722458 0 0 1 58.793633176168754,-26.8428052339125 L 58.557597769437365,-27.814549689399215 A 140.76494962722458 140.76494962722458 0 0 0 21.40063509461097,-12.933012701892217 Z M 119.9953094028765,-28.935811121608694 L 119.79488877565812,-27.956101178724893 A 139.76494962722458 139.76494962722458 0 0 1 157.20246760888196,-14.53629682269869 L 155.79826667277152,-11.885217847823256 L 163.6223520396097,-11.701674467586923 L 159.07473552369586,-18.07106878919927 L 157.67053458758542,-15.419989814323836 A 140.76494962722458 140.76494962722458 0 0 0 119.9953094028765,-28.935811121608694"/><text text-anchor="middle" pointer-events="none" font-size="8px" fill="#000000" x="89.22364783513542" y="-28.268586359416176" transform="rotate(180 89.22364783513542 -31.268586359416176)" font-family="sans-serif">PublicTransport</text></g></g><g class="layer nodes"><g class="node" aria-label="graph-node1" transform="translate(-46.77365062875213,-86.58232667040616)"><circle class="outline" cx="0" cy="0" r="25" fill="#F16667" stroke="#eb2728" stroke-width="2px"/><text class="caption" text-anchor="middle" pointer-events="none" x="0" y="5" font-size="10px" fill="#FFFFFF" font-family="sans-serif"> Darjeeling</text></g><g class="node" aria-label="graph-node3" transform="translate(-647.0567486653802,-55.455228527173446)"><circle class="outline" cx="0" cy="0" r="25" fill="#D9C8AE" stroke="#c0a378" stroke-width="2px"/><text class="caption" text-anchor="middle" pointer-events="none" x="0" y="5" font-size="10px" fill="#2A2C34" font-family="sans-serif"> Sandakp…</text></g><g class="node" aria-label="graph-node0" transform="translate(-232.38018210074776,-80.245397990442)"><circle class="outline" cx="0" cy="0" r="25" fill="#F16667" stroke="#eb2728" stroke-width="2px"/><text class="caption" text-anchor="middle" pointer-events="none" x="0" y="5" font-size="10px" fill="#FFFFFF" font-family="sans-serif"> Rimbik</text></g><g class="node" aria-label="graph-node2" transform="translate(-379.22261146050744,-68.99034901872155)"><circle class="outline" cx="0" cy="0" r="25" fill="#57C7E3" stroke="#23b3d7" stroke-width="2px"/><text class="caption" text-anchor="middle" pointer-events="none" x="0" y="5" font-size="10px" fill="#2A2C34" font-family="sans-serif"> BhikeBh…</text></g></g></svg>