<svg xmlns="http://www.w3.org/2000/svg" width="523.3731689453125" height="91.52195739746094" viewBox="-412.0693054199219 -55.07585906982422 523.3731689453125 91.52195739746094"><title>Neo4j Graph Visualization</title><desc>Created using Neo4j (http://www.neo4j.com/)</desc><g class="layer relationships"><g class="relationship" transform="translate(82.30385321578783 3.4496432052156196) rotate(181.77996363235707)"><path class="outline" fill="#A5ABB6" stroke="none" d="M 21.40063509461097,12.933012701892217 L 21.90063509461097,12.06698729810778 A 96.98792508689719 96.98792508689719 0 0 0 38.05290340152969,19.509692997147198 L 37.71944236287408,20.452456878349025 A 97.98792508689719 97.98792508689719 0 0 1 21.40063509461097,12.933012701892217 Z M 98.71469326108763,21.87919357548334 L 98.42567708284002,20.9218693625277 A 96.98792508689719 96.98792508689719 0 0 0 114.90827353990312,14.24252406416093 L 113.53139051466174,11.577154833678563 L 121.35694891523553,11.474025210344786 L 116.74411757355828,17.796349704804086 L 115.3672345483169,15.130980474321719 A 97.98792508689719 97.98792508689719 0 0 1 98.71469326108763,21.87919357548334"/><text text-anchor="middle" pointer-events="none" font-size="8px" fill="#000000" x="68.1148862947052" y="28.53424674148677" transform="rotate(180 68.1148862947052 25.53424674148677)" font-family="sans-serif">PublicTransport</text></g><g class="relationship" transform="translate(-61.19523186726534 -1.0097664955129546) rotate(184.52947973650504)"><path class="outline" fill="#A5ABB6" stroke="none" d="M 25 0.5 L 64.84461323249175 0.5 L 64.84461323249175 -0.5 L 25 -0.5 Z M 84.18055073249175 0.5 L 124.0251639649835 0.5 L 124.0251639649835 3.5 L 131.0251639649835 0 L 124.0251639649835 -3.5 L 124.0251639649835 -0.5 L 84.18055073249175 -0.5 Z"/><text text-anchor="middle" pointer-events="none" font-size="8px" fill="#000000" x="74.51258198249175" y="3" transform="rotate(180 74.51258198249175 0)" font-family="sans-serif">trek</text></g><g class="relationship selected" transform="translate(-216.73310320846392 -13.33138850516502) rotate(184.38137153042942)"><path class="outline" fill="#A5ABB6" stroke="none" d="M 25 0.5 L 70.24388877726723 0.5 L 70.24388877726723 -0.5 L 25 -0.5 Z M 89.57982627726723 0.5 L 134.82371505453446 0.5 L 134.82371505453446 3.5 L 141.82371505453446 0 L 134.82371505453446 -3.5 L 134.82371505453446 -0.5 L 89.57982627726723 -0.5 Z"/><text text-anchor="middle" pointer-events="none" font-size="8px" fill="#000000" x="79.91185752726723" y="3" transform="rotate(180 79.91185752726723 0)" font-family="sans-serif">trek</text></g><g class="relationship" transform="translate(82.30385321578783 3.4496432052156196) rotate(181.77996363235707)"><path class="outline" fill="#A5ABB6" stroke="none" d="M 25 0.5 L 57.27832020962764 0.5 L 57.27832020962764 -0.5 L 25 -0.5 Z M 79.29003895962764 0.5 L 111.56835916925527 0.5 L 111.56835916925527 3.5 L 118.56835916925527 0 L 111.56835916925527 -3.5 L 111.56835916925527 -0.5 L 79.29003895962764 -0.5 Z"/><text text-anchor="middle" pointer-events="none" font-size="8px" fill="#000000" x="68.28417958462764" y="3" transform="rotate(180 68.28417958462764 0)" font-family="sans-serif">road</text></g><g class="relationship" transform="translate(82.30385321578783 3.4496432052156196) rotate(181.77996363235707)"><path class="outline" fill="#A5ABB6" stroke="none" d="M 21.40063509461097,-12.933012701892217 L 21.90063509461097,-12.06698729810778 A 96.98792508689719 96.98792508689719 0 0 1 58.537723068364315,-24.333419424850547 L 58.41547202980388,-25.325918635717187 A 97.98792508689719 97.98792508689719 0 0 0 21.40063509461097,-12.933012701892217 Z M 77.8134332121592,-25.779655322769074 L 77.73772147964195,-24.78252557516386 A 96.98792508689719 96.98792508689719 0 0 1 114.90827353990312,-14.24252406416093 L 113.53139051466174,-11.577154833678563 L 121.35694891523553,-11.474025210344786 L 116.74411757355828,-17.796349704804086 L 115.3672345483169,-15.130980474321719 A 97.98792508689719 97.98792508689719 0 0 0 77.8134332121592,-25.779655322769074"/><text text-anchor="middle" pointer-events="none" font-size="8px" fill="#000000" x="68.11488629470517" y="-22.53424674148677" transform="rotate(180 68.11488629470517 -25.53424674148677)" font-family="sans-serif">trek</text></g></g><g class="layer nodes"><g class="node" aria-label="graph-node1" transform="translate(82.30385321578783,3.4496432052156196)"><circle class="outline" cx="0" cy="0" r="25" fill="#F16667" stroke="#eb2728" stroke-width="2px"/><text class="caption" text-anchor="middle" pointer-events="none" x="0" y="5" font-size="10px" fill="#FFFFFF" font-family="sans-serif"> Darjeeling</text></g><g class="node" aria-label="graph-node3" transform="translate(-383.0692998185743,-26.07586189088064)"><circle class="outline" cx="0" cy="0" r="25" fill="#D9C8AE" stroke="#c0a378" stroke-width="2px"/><text class="caption" text-anchor="middle" pointer-events="none" x="0" y="5" font-size="10px" fill="#2A2C34" font-family="sans-serif"> Sandakp…</text></g><g class="node" aria-label="graph-node0" transform="translate(-61.19523186726534,-1.0097664955129546)"><circle class="outline" cx="0" cy="0" r="25" fill="#F16667" stroke="#eb2728" stroke-width="2px"/><text class="caption" text-anchor="middle" pointer-events="none" x="0" y="5" font-size="10px" fill="#FFFFFF" font-family="sans-serif"> Rimbik</text></g><g class="node" aria-label="graph-node2" transform="translate(-216.73310320846392,-13.33138850516502)"><circle class="outline" cx="0" cy="0" r="25" fill="#57C7E3" stroke="#23b3d7" stroke-width="2px"/><text class="caption" text-anchor="middle" pointer-events="none" x="0" y="5" font-size="10px" fill="#2A2C34" font-family="sans-serif"> BhikeBh…</text></g></g></svg>