<svg xmlns="http://www.w3.org/2000/svg" width="529.9679565429688" height="391.9683532714844" viewBox="-247.93101501464844 -205.67152404785156 529.9679565429688 391.9683532714844"><title>Neo4j Graph Visualization</title><desc>Created using Neo4j (http://www.neo4j.com/)</desc><g class="layer relationships"><g class="relationship" transform="translate(-46.56527319743249 -51.83835912553543) rotate(368.2413012776728)"><path class="outline" fill="#A5ABB6" stroke="none" d="M 24.018736134675446,-6.953439040707552 L 24.277555179777966,-5.987513214418485 A 182.20980123449942 182.20980123449942 0 0 1 59.63731358783258,-11.81369857610818 L 59.57255522535243,-12.81159955039817 A 183.20980123449942 183.20980123449942 0 0 0 24.018736134675446,-6.953439040707552 Z M 78.95099071609323,-13.042007782176029 L 78.90997725108289,-12.04284918831425 A 182.20980123449942 182.20980123449942 0 0 1 114.39826570714189,-7.059042108951522 L 113.69092707652277,-4.143622403037145 L 121.31880145937862,-5.894488588492649 L 115.34138388130071,-10.946268383504027 L 114.6340452506816,-8.030848677589647 A 183.20980123449942 183.20980123449942 0 0 0 78.95099071609323,-13.042007782176029"/><text text-anchor="middle" pointer-events="none" font-size="8px" fill="#000000" x="69.26466882897691" y="-9.683248121705105" font-family="sans-serif">trek</text></g><g class="relationship" transform="translate(97.54496044825963 -30.965708161157462) rotate(361.6252188125012)"><path class="outline" fill="#A5ABB6" stroke="none" d="M 21.40063509461097,-12.933012701892217 L 21.90063509461097,-12.06698729810778 A 109.1882635325686 109.1882635325686 0 0 1 64.53070855894444,-26.037994115719812 L 64.42113580895393,-27.03197289439646 A 110.1882635325686 110.1882635325686 0 0 0 21.40063509461097,-12.933012701892217 Z M 83.81552605848414,-27.451981185995592 L 83.74908741100128,-26.454190673853574 A 109.1882635325686 109.1882635325686 0 0 1 126.94402692481378,-14.341825278510333 L 125.55790926623767,-11.681246800700766 L 133.38306298279878,-11.550980488134329 L 128.79218380291528,-17.88926324892309 L 127.40606614433915,-15.228684771113523 A 110.1882635325686 110.1882635325686 0 0 0 83.81552605848414,-27.451981185995592"/><text text-anchor="middle" pointer-events="none" font-size="8px" fill="#000000" x="74.11989556030319" y="-24.16972851754791" font-family="sans-serif">trek</text></g><g class="relationship" transform="translate(253.03693557857315 -26.553929783993688) rotate(220.10074389695615)"><path class="outline" fill="#A5ABB6" stroke="none" d="M 21.40063509461097,12.933012701892217 L 21.90063509461097,12.06698729810778 A 97.16238624497706 97.16238624497706 0 0 0 58.62328537659204,24.357903750572717 L 58.5012366775141,25.35042786365682 A 98.16238624497706 98.16238624497706 0 0 1 21.40063509461097,12.933012701892217 Z M 77.89914672622251,25.80364495108725 L 77.82358500861498,24.806503824249035 A 97.16238624497706 97.16238624497706 0 0 0 115.08018640130726,14.244055072174902 L 113.70316099339598,11.57875939890209 L 121.5287138735957,11.47521173259404 L 116.9162202785223,17.79778263653865 L 115.53919487061103,15.132486963265837 A 98.16238624497706 98.16238624497706 0 0 1 77.89914672622251,25.80364495108725"/><text text-anchor="middle" pointer-events="none" font-size="8px" fill="#000000" x="68.20064503892134" y="28.55763336273759" transform="rotate(180 68.20064503892134 25.55763336273759)" font-family="sans-serif">trek</text></g><g class="relationship" transform="translate(143.0887094370012 -119.14137296184899) rotate(471.95868845965106)"><path class="outline" fill="#A5ABB6" stroke="none" d="M 25 0.5 L 88.78418302321906 0.5 L 88.78418302321906 -0.5 L 25 -0.5 Z M 108.12012052321906 0.5 L 171.90430354643811 0.5 L 171.90430354643811 3.5 L 178.90430354643811 0 L 171.90430354643811 -3.5 L 171.90430354643811 -0.5 L 108.12012052321906 -0.5 Z"/><text text-anchor="middle" pointer-events="none" font-size="8px" fill="#000000" x="98.45215177321906" y="3" transform="rotate(180 98.45215177321906 0)" font-family="sans-serif">trek</text></g><g class="relationship" transform="translate(-46.56527319743249 -51.83835912553543) rotate(368.2413012776728)"><path class="outline" fill="#A5ABB6" stroke="none" d="M 24.018736134675446,6.953439040707552 L 24.277555179777966,5.987513214418485 A 182.20980123449942 182.20980123449942 0 0 0 58.30621302699704,11.722422173402322 L 58.23414934640658,12.719822206458133 A 183.20980123449942 183.20980123449942 0 0 1 24.018736134675446,6.953439040707552 Z M 80.29120037032489,12.982078988079309 L 80.24287174179601,11.983247498955876 A 182.20980123449942 182.20980123449942 0 0 0 114.39826570714189,7.059042108951522 L 113.69092707652277,4.143622403037145 L 121.31880145937862,5.894488588492649 L 115.34138388130071,10.946268383504027 L 114.6340452506816,8.030848677589647 A 183.20980123449942 183.20980123449942 0 0 1 80.29120037032489,12.982078988079309"/><text text-anchor="middle" pointer-events="none" font-size="8px" fill="#000000" x="69.26466882897692" y="15.683248121705105" font-family="sans-serif">road</text></g><g class="relationship" transform="translate(97.54496044825963 -30.965708161157462) rotate(361.6252188125012)"><path class="outline" fill="#A5ABB6" stroke="none" d="M 25 0.5 L 63.271415773939296 0.5 L 63.271415773939296 -0.5 L 25 -0.5 Z M 85.2831345239393 0.5 L 123.55455029787859 0.5 L 123.55455029787859 3.5 L 130.5545502978786 0 L 123.55455029787859 -3.5 L 123.55455029787859 -0.5 L 85.2831345239393 -0.5 Z"/><text text-anchor="middle" pointer-events="none" font-size="8px" fill="#000000" x="74.2772751489393" y="3" font-family="sans-serif">road</text></g><g class="relationship" transform="translate(97.54496044825963 -30.965708161157462) rotate(361.6252188125012)"><path class="outline" fill="#A5ABB6" stroke="none" d="M 21.40063509461097,12.933012701892217 L 21.90063509461097,12.06698729810778 A 109.1882635325686 109.1882635325686 0 0 0 51.2349363053632,23.733435118490036 L 51.00359431183477,24.70630760860901 A 110.1882635325686 110.1882635325686 0 0 1 21.40063509461097,12.933012701892217 Z M 97.32117087839075,25.70936911012761 L 97.13216341652671,24.727393459024327 A 109.1882635325686 109.1882635325686 0 0 0 126.94402692481378,14.341825278510333 L 125.55790926623767,11.681246800700766 L 133.38306298279878,11.550980488134329 L 128.79218380291528,17.88926324892309 L 127.40606614433915,15.228684771113523 A 110.1882635325686 110.1882635325686 0 0 1 97.32117087839075,25.70936911012761"/><text text-anchor="middle" pointer-events="none" font-size="8px" fill="#000000" x="74.11989556030318" y="30.16972851754791" font-family="sans-serif">twowheeler</text></g><g class="relationship" transform="translate(253.03693557857315 -26.553929783993688) rotate(220.10074389695615)"><path class="outline" fill="#A5ABB6" stroke="none" d="M 25 0.5 L 57.36389620043457 0.5 L 57.36389620043457 -0.5 L 25 -0.5 Z M 79.37561495043457 0.5 L 111.73951115086913 0.5 L 111.73951115086913 3.5 L 118.73951115086913 0 L 111.73951115086913 -3.5 L 111.73951115086913 -0.5 L 79.37561495043457 -0.5 Z"/><text text-anchor="middle" pointer-events="none" font-size="8px" fill="#000000" x="68.36975557543457" y="3" transform="rotate(180 68.36975557543457 0)" font-family="sans-serif">road</text></g><g class="relationship" transform="translate(253.03693557857315 -26.553929783993688) rotate(220.10074389695615)"><path class="outline" fill="#A5ABB6" stroke="none" d="M 21.40063509461097,-12.933012701892217 L 21.90063509461097,-12.06698729810778 A 97.16238624497706 97.16238624497706 0 0 1 45.38638391927024,-21.787477139017696 L 45.12810038726069,-22.753546296528 A 98.16238624497706 98.16238624497706 0 0 0 21.40063509461097,-12.933012701892217 Z M 91.37897257409332,-23.834161967546095 L 91.16608915554193,-22.857084360543524 A 97.16238624497706 97.16238624497706 0 0 1 115.08018640130726,-14.244055072174902 L 113.70316099339598,-11.57875939890209 L 121.5287138735957,-11.47521173259404 L 116.9162202785223,-17.79778263653865 L 115.53919487061103,-15.132486963265837 A 98.16238624497706 98.16238624497706 0 0 0 91.37897257409332,-23.834161967546095"/><text text-anchor="middle" pointer-events="none" font-size="8px" fill="#000000" x="68.20064503892131" y="-22.55763336273759" transform="rotate(180 68.20064503892131 -25.55763336273759)" font-family="sans-serif">twowheeler</text></g><g class="relationship" transform="translate(-46.56527319743249 -51.83835912553543) rotate(289.5833393265545)"><path class="outline" fill="#A5ABB6" stroke="none" d="M 21.40063509461097,12.933012701892217 L 21.90063509461097,12.06698729810778 A 85.68483510236094 85.68483510236094 0 0 0 32.69359285153454,17.3269753589976 L 32.31955397107255,18.254388382360304 A 86.68483510236094 86.68483510236094 0 0 1 21.40063509461097,12.933012701892217 Z M 93.06637446619928,19.788845598031642 L 92.7396354029368,18.84373100998512 A 85.68483510236094 85.68483510236094 0 0 0 103.78439266031184,14.135360944972954 L 102.41747610029695,11.464866773858347 L 110.24336515291506,11.39097133345734 L 105.60694807366501,17.69601983979243 L 104.24003151365012,15.025525668677824 A 86.68483510236094 86.68483510236094 0 0 1 93.06637446619928,19.788845598031642"/><text text-anchor="middle" pointer-events="none" font-size="8px" fill="#000000" x="62.56672851273322" y="27.019096025928846" font-family="sans-serif">PublicTransport</text></g><g class="relationship" transform="translate(-2.1550820134336766 -176.6715197256019) rotate(381.60820507378105)"><path class="outline" fill="#A5ABB6" stroke="none" d="M 25 0.5 L 64.94329282852716 0.5 L 64.94329282852716 -0.5 L 25 -0.5 Z M 84.27923032852716 0.5 L 124.22252315705433 0.5 L 124.22252315705433 3.5 L 131.22252315705433 0 L 124.22252315705433 -3.5 L 124.22252315705433 -0.5 L 84.27923032852716 -0.5 Z"/><text text-anchor="middle" pointer-events="none" font-size="8px" fill="#000000" x="74.61126157852716" y="3" font-family="sans-serif">trek</text></g><g class="relationship" transform="translate(-46.56527319743249 -51.83835912553543) rotate(289.5833393265545)"><path class="outline" fill="#A5ABB6" stroke="none" d="M 25 0.5 L 51.74288224776842 0.5 L 51.74288224776842 -0.5 L 25 -0.5 Z M 73.75460099776842 0.5 L 100.49748324553684 0.5 L 100.49748324553684 3.5 L 107.49748324553684 0 L 100.49748324553684 -3.5 L 100.49748324553684 -0.5 L 73.75460099776842 -0.5 Z"/><text text-anchor="middle" pointer-events="none" font-size="8px" fill="#000000" x="62.74874162276842" y="3" font-family="sans-serif">road</text></g><g class="relationship" transform="translate(-46.56527319743249 -51.83835912553543) rotate(289.5833393265545)"><path class="outline" fill="#A5ABB6" stroke="none" d="M 21.40063509461097,-12.933012701892217 L 21.90063509461097,-12.06698729810778 A 85.68483510236094 85.68483510236094 0 0 1 53.0042784231955,-22.73866690067581 L 52.867278985563715,-23.72923802588015 A 86.68483510236094 86.68483510236094 0 0 0 21.40063509461097,-12.933012701892217 Z M 72.26844246148961,-24.219309029521256 L 72.18162923969814,-23.223084424062137 A 85.68483510236094 85.68483510236094 0 0 1 103.78439266031184,-14.135360944972954 L 102.41747610029695,-11.464866773858347 L 110.24336515291506,-11.39097133345734 L 105.60694807366501,-17.69601983979243 L 104.24003151365012,-15.025525668677824 A 86.68483510236094 86.68483510236094 0 0 0 72.26844246148961,-24.219309029521256"/><text text-anchor="middle" pointer-events="none" font-size="8px" fill="#000000" x="62.56672851273324" y="-21.019096025928846" font-family="sans-serif">trek</text></g><g class="relationship" transform="translate(-2.1550820134336766 -176.6715197256019) rotate(510.77904694641484)"><path class="outline" fill="#A5ABB6" stroke="none" d="M 24.018736134675446,-6.953439040707552 L 24.277555179777966,-5.987513214418485 A 251.14188371480955 251.14188371480955 0 0 1 77.20746524283612,-14.254733811776703 L 77.15940319804011,-15.253578163940745 A 252.14188371480955 252.14188371480955 0 0 0 24.018736134675446,-6.953439040707552 Z M 96.52809038548358,-15.440705151259095 L 96.49933581059673,-14.44111864953797 A 251.14188371480955 251.14188371480955 0 0 1 149.5790952684746,-7.198090858438865 L 148.85877052612068,-4.285852498422161 L 156.49437223223921,-6.002706186282543 L 150.5395282582798,-11.081075338461138 L 149.8192035159259,-8.168836978444434 A 252.14188371480955 252.14188371480955 0 0 0 96.52809038548358,-15.440705151259095"/><text text-anchor="middle" pointer-events="none" font-size="8px" fill="#000000" x="86.84677966888222" y="-12.033221954920037" transform="rotate(180 86.84677966888222 -15.033221954920037)" font-family="sans-serif">trek</text></g><g class="relationship" transform="translate(-159.91485698082877 -88.42683323741517) rotate(422.5638005790878)"><path class="outline" fill="#A5ABB6" stroke="none" d="M 24.018736134675446,-6.953439040707552 L 24.277555179777966,-5.987513214418485 A 206.3516193811745 206.3516193811745 0 0 1 65.77692150712903,-12.674877228595108 L 65.71921242400211,-13.67321067074991 A 207.3516193811745 207.3516193811745 0 0 0 24.018736134675446,-6.953439040707552 Z M 85.0936596966062,-13.886386571211744 L 85.05793113342764,-12.887025040146426 A 206.3516193811745 206.3516193811745 0 0 1 126.69439398918844,-7.1143996503748745 L 125.9818852644284,-4.200239167981904 L 133.61285323556538,-5.9375727063336265 L 127.64440562220182,-10.999946960232169 L 126.93189689744177,-8.085786477839198 A 207.3516193811745 207.3516193811745 0 0 0 85.0936596966062,-13.886386571211744"/><text text-anchor="middle" pointer-events="none" font-size="8px" fill="#000000" x="75.40944585497483" y="-10.506254059789029" font-family="sans-serif">trek</text></g><g class="relationship" transform="translate(-87.16189693414785 51.711080494734496) rotate(366.76169975662646)"><path class="outline" fill="#A5ABB6" stroke="none" d="M 24.018736134675446,6.953439040707552 L 24.277555179777966,5.987513214418485 A 200.82327680948396 200.82327680948396 0 0 0 64.3694380356079,12.478406215125204 L 64.31025661963272,13.476653459049885 A 201.82327680948396 201.82327680948396 0 0 1 24.018736134675446,6.953439040707552 Z M 83.68555283009852,13.693547764322034 L 83.64873294970808,12.6942258460154 A 200.82327680948396 200.82327680948396 0 0 0 123.87587367039754,7.10245400606583 L 123.1644805912336,4.188020975969296 L 130.79478292048344,5.928275659699414 L 124.82439777594945,10.988364712861209 L 124.11300469678551,8.073931682764675 A 201.82327680948396 201.82327680948396 0 0 1 83.68555283009852,13.693547764322034"/><text text-anchor="middle" pointer-events="none" font-size="8px" fill="#000000" x="74.00089712988569" y="16.31778730637467" font-family="sans-serif">trek</text></g><g class="relationship" transform="translate(-2.1550820134336766 -176.6715197256019) rotate(510.77904694641484)"><path class="outline" fill="#A5ABB6" stroke="none" d="M 24.018736134675446,6.953439040707552 L 24.277555179777966,5.987513214418485 A 251.14188371480955 251.14188371480955 0 0 0 63.70968761485189,13.240057385374286 L 63.6078799445619,14.234861485823274 A 252.14188371480955 252.14188371480955 0 0 1 24.018736134675446,6.953439040707552 Z M 110.0967664976174,14.684005261044945 L 110.01419826863933,13.687419846961745 A 251.14188371480955 251.14188371480955 0 0 0 149.5790952684746,7.198090858438865 L 148.85877052612068,4.285852498422161 L 156.49437223223921,6.002706186282543 L 150.5395282582798,11.081075338461138 L 149.8192035159259,8.168836978444434 A 252.14188371480955 252.14188371480955 0 0 1 110.0967664976174,14.684005261044945"/><text text-anchor="middle" pointer-events="none" font-size="8px" fill="#000000" x="86.84677966888232" y="18.033221954920037" transform="rotate(180 86.84677966888232 15.033221954920037)" font-family="sans-serif">twowheeler</text></g><g class="relationship" transform="translate(-159.91485698082877 -88.42683323741517) rotate(422.5638005790878)"><path class="outline" fill="#A5ABB6" stroke="none" d="M 24.018736134675446,6.953439040707552 L 24.277555179777966,5.987513214418485 A 206.3516193811745 206.3516193811745 0 0 0 52.303082308158935,11.451760246210029 L 52.180077690936486,12.444166344610267 A 207.3516193811745 207.3516193811745 0 0 1 24.018736134675446,6.953439040707552 Z M 98.65655953413298,12.955544332731279 L 98.55542082427701,11.960671998525214 A 206.3516193811745 206.3516193811745 0 0 0 126.69439398918844,7.1143996503748745 L 125.9818852644284,4.200239167981904 L 133.61285323556538,5.9375727063336265 L 127.64440562220182,10.999946960232169 L 126.93189689744177,8.085786477839198 A 207.3516193811745 207.3516193811745 0 0 1 98.65655953413298,12.955544332731279"/><text text-anchor="middle" pointer-events="none" font-size="8px" fill="#000000" x="75.4094458549749" y="16.50625405978903" font-family="sans-serif">twowheeler</text></g><g class="relationship" transform="translate(-87.16189693414785 51.711080494734496) rotate(366.76169975662646)"><path class="outline" fill="#A5ABB6" stroke="none" d="M 24.018736134675446,-6.953439040707552 L 24.277555179777966,-5.987513214418485 A 200.82327680948396 200.82327680948396 0 0 1 50.89957269109328,-11.223385544614246 L 50.77331804755947,-12.215383410028352 A 201.82327680948396 201.82327680948396 0 0 0 24.018736134675446,-6.953439040707552 Z M 97.24733380958739,-12.735630907275265 L 97.14331761173605,-11.741055304023007 A 200.82327680948396 200.82327680948396 0 0 1 123.87587367039754,-7.10245400606583 L 123.1644805912336,-4.188020975969296 L 130.79478292048344,-5.928275659699414 L 124.82439777594945,-10.988364712861209 L 124.11300469678551,-8.073931682764675 A 201.82327680948396 201.82327680948396 0 0 0 97.24733380958739,-12.735630907275265"/><text text-anchor="middle" pointer-events="none" font-size="8px" fill="#000000" x="74.00089712988563" y="-10.317787306374669" font-family="sans-serif">twowheeler</text></g><g class="relationship" transform="translate(-2.1550820134336766 -176.6715197256019) rotate(415.6178895864829)"><path class="outline" fill="#A5ABB6" stroke="none" d="M 25 0.5 L 75.10756861811353 0.5 L 75.10756861811353 -0.5 L 25 -0.5 Z M 94.44350611811353 0.5 L 144.55107473622706 0.5 L 144.55107473622706 3.5 L 151.55107473622706 0 L 144.55107473622706 -3.5 L 144.55107473622706 -0.5 L 94.44350611811353 -0.5 Z"/><text text-anchor="middle" pointer-events="none" font-size="8px" fill="#000000" x="84.77553736811353" y="3" font-family="sans-serif">trek</text></g><g class="relationship" transform="translate(-159.91485698082877 -88.42683323741517) rotate(469.92816572627487)"><path class="outline" fill="#A5ABB6" stroke="none" d="M 24.018736134675446,-6.953439040707552 L 24.277555179777966,-5.987513214418485 A 236.24376288500488 236.24376288500488 0 0 1 73.40063436473413,-13.73127283940525 L 73.34974918668937,-14.729977349585994 A 237.24376288500488 237.24376288500488 0 0 0 24.018736134675446,-6.953439040707552 Z M 92.72015653871271,-14.925041893555232 L 92.6893940177138,-13.925515171900543 A 236.24376288500488 236.24376288500488 0 0 1 141.95845824288523,-7.172587501846639 L 141.24051525148482,-4.259761063299533 L 148.87471043139521,-5.982858261670177 L 142.91571556475245,-11.056356086576113 L 142.19777257335204,-8.143529648029007 A 237.24376288500488 237.24376288500488 0 0 0 92.72015653871271,-14.925041893555232"/><text text-anchor="middle" pointer-events="none" font-size="8px" fill="#000000" x="83.03799597202824" y="-11.525321094198802" transform="rotate(180 83.03799597202824 -14.525321094198802)" font-family="sans-serif">trek</text></g><g class="relationship" transform="translate(-218.93101263940108 74.35343192781485) rotate(350.2498833179245)"><path class="outline" fill="#A5ABB6" stroke="none" d="M 21.40063509461097,12.933012701892217 L 21.90063509461097,12.06698729810778 A 86.91476515157619 86.91476515157619 0 0 0 53.60535501502438,22.913091259113017 L 53.47013446147541,23.903906782759023 A 87.91476515157619 87.91476515157619 0 0 1 21.40063509461097,12.933012701892217 Z M 72.8709672624621,24.389751806982076 L 72.78551006333167,23.393409964481833 A 86.91476515157619 86.91476515157619 0 0 0 104.9933754894383,14.147835830951719 L 103.62529869316842,11.477935855389351 L 111.45115489846214,11.400639968915716 L 106.81747788446481,17.707702465034874 L 105.44940108819493,15.037802489472506 A 87.91476515157619 87.91476515157619 0 0 1 72.8709672624621,24.389751806982076"/><text text-anchor="middle" pointer-events="none" font-size="8px" fill="#000000" x="63.16962099898874" y="27.183960716010404" font-family="sans-serif">trek</text></g><g class="relationship" transform="translate(-159.91485698082877 -88.42683323741517) rotate(469.92816572627487)"><path class="outline" fill="#A5ABB6" stroke="none" d="M 24.018736134675446,6.953439040707552 L 24.277555179777966,5.987513214418485 A 236.24376288500488 236.24376288500488 0 0 0 59.90948634785847,12.655712818834957 L 59.80149427373264,13.649864573813034 A 237.24376288500488 237.24376288500488 0 0 1 24.018736134675446,6.953439040707552 Z M 106.28741565545899,14.117988702052855 L 106.19946613425503,13.121863769265786 A 236.24376288500488 236.24376288500488 0 0 0 141.95845824288523,7.172587501846639 L 141.24051525148482,4.259761063299533 L 148.87471043139521,5.982858261670177 L 142.91571556475245,11.056356086576113 L 142.19777257335204,8.143529648029007 A 237.24376288500488 237.24376288500488 0 0 1 106.28741565545899,14.117988702052855"/><text text-anchor="middle" pointer-events="none" font-size="8px" fill="#000000" x="83.03799597202833" y="17.5253210941988" transform="rotate(180 83.03799597202833 14.525321094198802)" font-family="sans-serif">twowheeler</text></g><g class="relationship" transform="translate(-218.93101263940108 74.35343192781485) rotate(350.2498833179245)"><path class="outline" fill="#A5ABB6" stroke="none" d="M 25 0.5 L 52.34430130574094 0.5 L 52.34430130574094 -0.5 L 25 -0.5 Z M 74.35602005574094 0.5 L 101.70032136148188 0.5 L 101.70032136148188 3.5 L 108.70032136148188 0 L 101.70032136148188 -3.5 L 101.70032136148188 -0.5 L 74.35602005574094 -0.5 Z"/><text text-anchor="middle" pointer-events="none" font-size="8px" fill="#000000" x="63.35016068074094" y="3" font-family="sans-serif">road</text></g><g class="relationship" transform="translate(-218.93101263940108 74.35343192781485) rotate(350.2498833179245)"><path class="outline" fill="#A5ABB6" stroke="none" d="M 21.40063509461097,-12.933012701892217 L 21.90063509461097,-12.06698729810778 A 86.91476515157619 86.91476515157619 0 0 1 40.437132775963065,-20.06198706991549 L 40.150404912740115,-21.019999143144005 A 87.91476515157619 87.91476515157619 0 0 0 21.40063509461097,-12.933012701892217 Z M 86.31835087556044,-22.176159141775315 L 86.07993434599317,-21.20499614905519 A 86.91476515157619 86.91476515157619 0 0 1 104.9933754894383,-14.147835830951719 L 103.62529869316842,-11.477935855389351 L 111.45115489846214,-11.400639968915716 L 106.81747788446481,-17.707702465034874 L 105.44940108819493,-15.037802489472506 A 87.91476515157619 87.91476515157619 0 0 0 86.31835087556044,-22.176159141775315"/><text text-anchor="middle" pointer-events="none" font-size="8px" fill="#000000" x="63.16962099898876" y="-21.183960716010404" font-family="sans-serif">twowheeler</text></g><g class="relationship" transform="translate(-218.93101263940108 74.35343192781485) rotate(389.89294997579265)"><path class="outline" fill="#A5ABB6" stroke="none" d="M 25 0.5 L 70.0448640874818 0.5 L 70.0448640874818 -0.5 L 25 -0.5 Z M 89.3808015874818 0.5 L 134.4256656749636 0.5 L 134.4256656749636 3.5 L 141.4256656749636 0 L 134.4256656749636 -3.5 L 134.4256656749636 -0.5 L 89.3808015874818 -0.5 Z"/><text text-anchor="middle" pointer-events="none" font-size="8px" fill="#000000" x="79.7128328374818" y="3" font-family="sans-serif">trek</text></g><g class="relationship" transform="translate(-74.64693716921059 157.29683287730046) rotate(328.3171279878383)"><path class="outline" fill="#A5ABB6" stroke="none" d="M 25 0.5 L 69.96562627614718 0.5 L 69.96562627614718 -0.5 L 25 -0.5 Z M 89.30156377614718 0.5 L 134.26719005229435 0.5 L 134.26719005229435 3.5 L 141.26719005229435 0 L 134.26719005229435 -3.5 L 134.26719005229435 -0.5 L 89.30156377614718 -0.5 Z"/><text text-anchor="middle" pointer-events="none" font-size="8px" fill="#000000" x="79.63359502614718" y="3" font-family="sans-serif">trek</text></g></g><g class="layer nodes"><g class="node" aria-label="graph-node1" transform="translate(-46.56527319743249,-51.83835912553543)"><circle class="outline" cx="0" cy="0" r="25" fill="#C990C0" stroke="#b261a5" stroke-width="2px"/><text class="caption" text-anchor="middle" pointer-events="none" x="0" y="5" font-size="10px" fill="#FFFFFF" font-family="sans-serif"> Darjeeling</text></g><g class="node" aria-label="graph-node3" transform="translate(66.84114691734008,69.97043051579845)"><circle class="outline" cx="0" cy="0" r="25" fill="#F79767" stroke="#f36924" stroke-width="2px"/><text class="caption" text-anchor="middle" pointer-events="none" x="0" y="5" font-size="10px" fill="#FFFFFF" font-family="sans-serif"> Sandakp…</text></g><g class="node" aria-label="graph-node6" transform="translate(97.54496044825963,-30.965708161157462)"><circle class="outline" cx="0" cy="0" r="25" fill="#57C7E3" stroke="#23b3d7" stroke-width="2px"/><text class="caption" text-anchor="middle" pointer-events="none" x="0" y="5" font-size="10px" fill="#2A2C34" font-family="sans-serif"> Tumbling</text></g><g class="node" aria-label="graph-node7" transform="translate(253.03693557857315,-26.553929783993688)"><circle class="outline" cx="0" cy="0" r="25" fill="#57C7E3" stroke="#23b3d7" stroke-width="2px"/><text class="caption" text-anchor="middle" pointer-events="none" x="0" y="5" font-size="10px" fill="#2A2C34" font-family="sans-serif"> Gairibus</text></g><g class="node" aria-label="graph-node2" transform="translate(143.0887094370012,-119.14137296184899)"><circle class="outline" cx="0" cy="0" r="25" fill="#57C7E3" stroke="#23b3d7" stroke-width="2px"/><text class="caption" text-anchor="middle" pointer-events="none" x="0" y="5" font-size="10px" fill="#2A2C34" font-family="sans-serif"> BhikeBh…</text></g><g class="node" aria-label="graph-node0" transform="translate(-2.1550820134336766,-176.6715197256019)"><circle class="outline" cx="0" cy="0" r="25" fill="#C990C0" stroke="#b261a5" stroke-width="2px"/><text class="caption" text-anchor="middle" pointer-events="none" x="0" y="5" font-size="10px" fill="#FFFFFF" font-family="sans-serif"> Rimbik</text></g><g class="node" aria-label="graph-node4" transform="translate(-159.91485698082877,-88.42683323741517)"><circle class="outline" cx="0" cy="0" r="25" fill="#57C7E3" stroke="#23b3d7" stroke-width="2px"/><text class="caption" text-anchor="middle" pointer-events="none" x="0" y="5" font-size="10px" fill="#2A2C34" font-family="sans-serif"> Sirikhola</text></g><g class="node" aria-label="graph-node5" transform="translate(-87.16189693414785,51.711080494734496)"><circle class="outline" cx="0" cy="0" r="25" fill="#57C7E3" stroke="#23b3d7" stroke-width="2px"/><text class="caption" text-anchor="middle" pointer-events="none" x="0" y="5" font-size="10px" fill="#2A2C34" font-family="sans-serif"> Gurdum</text></g><g class="node" aria-label="graph-node8" transform="translate(-218.93101263940108,74.35343192781485)"><circle class="outline" cx="0" cy="0" r="25" fill="#57C7E3" stroke="#23b3d7" stroke-width="2px"/><text class="caption" text-anchor="middle" pointer-events="none" x="0" y="5" font-size="10px" fill="#2A2C34" font-family="sans-serif"> Rammam</text></g><g class="node" aria-label="graph-node9" transform="translate(-74.64693716921059,157.29683287730046)"><circle class="outline" cx="0" cy="0" r="25" fill="#F79767" stroke="#f36924" stroke-width="2px"/><text class="caption" text-anchor="middle" pointer-events="none" x="0" y="5" font-size="10px" fill="#FFFFFF" font-family="sans-serif"> Sabargr…</text></g></g></svg>