<svg xmlns="http://www.w3.org/2000/svg" width="333.3389892578125" height="346.67071533203125" viewBox="-142.7032470703125 -123.9747314453125 333.3389892578125 346.67071533203125"><title>Neo4j Graph Visualization</title><desc>Created using Neo4j (http://www.neo4j.com/)</desc><g class="layer relationships"><g class="relationship" transform="translate(20.15267049989659 193.69600021525784) rotate(272.7936881846642)"><path class="outline" fill="#A5ABB6" stroke="none" d="M 25 0.5 L 51.87896065392489 0.5 L 51.87896065392489 -0.5 L 25 -0.5 Z M 87.65239815392489 0.5 L 114.53135880784978 0.5 L 114.53135880784978 3.5 L 121.53135880784978 0 L 114.53135880784978 -3.5 L 114.53135880784978 -0.5 L 87.65239815392489 -0.5 Z"/><text text-anchor="middle" pointer-events="none" font-size="8px" fill="#000000" x="69.76567940392489" y="3" font-family="sans-serif">WROTE</text></g><g class="relationship" transform="translate(152.69004794358472 123.10914966099891) rotate(211.14251718804059)"><path class="outline" fill="#A5ABB6" stroke="none" d="M 25 0.5 L 46.9737375510626 0.5 L 46.9737375510626 -0.5 L 25 -0.5 Z M 92.5362375510626 0.5 L 114.5099751021252 0.5 L 114.5099751021252 3.5 L 121.5099751021252 0 L 114.5099751021252 -3.5 L 114.5099751021252 -0.5 L 92.5362375510626 -0.5 Z"/><text text-anchor="middle" pointer-events="none" font-size="8px" fill="#000000" x="69.7549875510626" y="3" transform="rotate(180 69.7549875510626 0)" font-family="sans-serif">ACTED_IN</text></g><g class="relationship" transform="translate(161.6357493879768 -12.512404053518344) rotate(515.9862445731193)"><path class="outline" fill="#A5ABB6" stroke="none" d="M 24.018736134675446,6.953439040707552 L 24.277555179777966,5.987513214418485 A 185.0759408793603 185.0759408793603 0 0 0 46.69817638864645,10.531397971394824 L 46.56050016255293,11.521875258751095 A 186.0759408793603 186.0759408793603 0 0 1 24.018736134675446,6.953439040707552 Z M 93.4492358448625,12.074100552978251 L 93.33492497654326,11.08065552410946 A 185.0759408793603 185.0759408793603 0 0 0 115.85634234012477,7.066069118063142 L 115.14834741658734,4.1508087200463155 L 122.77661575608694,5.899957696145277 L 116.80033557150801,10.953082982085578 L 116.09234064797059,8.037822584068751 A 186.0759408793603 186.0759408793603 0 0 1 93.4492358448625,12.074100552978251"/><text text-anchor="middle" pointer-events="none" font-size="8px" fill="#000000" x="69.99329126223222" y="15.780954055335286" transform="rotate(180 69.99329126223222 12.780954055335286)" font-family="sans-serif">DIRECTED</text></g><g class="relationship" transform="translate(161.6357493879768 -12.512404053518344) rotate(515.9862445731193)"><path class="outline" fill="#A5ABB6" stroke="none" d="M 24.018736134675446,-6.953439040707552 L 24.277555179777966,-5.987513214418485 A 185.0759408793603 185.0759408793603 0 0 1 44.28495756449557,-10.179739207014393 L 44.134242264751066,-11.168316416150304 A 186.0759408793603 186.0759408793603 0 0 0 24.018736134675446,-6.953439040707552 Z M 95.88314758364746,-11.777781654438712 L 95.75575650878845,-10.78592908775039 A 185.0759408793603 185.0759408793603 0 0 1 115.85634234012477,-7.066069118063142 L 115.14834741658734,-4.1508087200463155 L 122.77661575608694,-5.899957696145277 L 116.80033557150801,-10.953082982085578 L 116.09234064797059,-8.037822584068751 A 186.0759408793603 186.0759408793603 0 0 0 95.88314758364746,-11.777781654438712"/><text text-anchor="middle" pointer-events="none" font-size="8px" fill="#000000" x="69.9932912622322" y="-9.780954055335286" transform="rotate(180 69.9932912622322 -12.780954055335286)" font-family="sans-serif">PRODUCED</text></g><g class="relationship" transform="translate(67.29240321438873 -94.97472979905795) rotate(465.6982484075223)"><path class="outline" fill="#A5ABB6" stroke="none" d="M 25 0.5 L 47.63249214854177 0.5 L 47.63249214854177 -0.5 L 25 -0.5 Z M 93.19499214854177 0.5 L 115.82748429708354 0.5 L 115.82748429708354 3.5 L 122.82748429708354 0 L 115.82748429708354 -3.5 L 115.82748429708354 -0.5 L 93.19499214854177 -0.5 Z"/><text text-anchor="middle" pointer-events="none" font-size="8px" fill="#000000" x="70.41374214854177" y="3" transform="rotate(180 70.41374214854177 0)" font-family="sans-serif">ACTED_IN</text></g><g class="relationship" transform="translate(-41.67904012796439 -83.1850679551962) rotate(422.14637884513087)"><path class="outline" fill="#A5ABB6" stroke="none" d="M 25 0.5 L 47.53242933138016 0.5 L 47.53242933138016 -0.5 L 25 -0.5 Z M 93.09492933138016 0.5 L 115.62735866276032 0.5 L 115.62735866276032 3.5 L 122.62735866276032 0 L 115.62735866276032 -3.5 L 115.62735866276032 -0.5 L 93.09492933138016 -0.5 Z"/><text text-anchor="middle" pointer-events="none" font-size="8px" fill="#000000" x="70.31367933138016" y="3" font-family="sans-serif">ACTED_IN</text></g><g class="relationship" transform="translate(-113.70324852097603 4.2877999162227125) rotate(376.9790502986916)"><path class="outline" fill="#A5ABB6" stroke="none" d="M 25 0.5 L 52.325174707496345 0.5 L 52.325174707496345 -0.5 L 25 -0.5 Z M 88.09861220749634 0.5 L 115.42378691499269 0.5 L 115.42378691499269 3.5 L 122.42378691499269 0 L 115.42378691499269 -3.5 L 115.42378691499269 -0.5 L 88.09861220749634 -0.5 Z"/><text text-anchor="middle" pointer-events="none" font-size="8px" fill="#000000" x="70.21189345749634" y="3" font-family="sans-serif">WROTE</text></g><g class="relationship" transform="translate(-100.40854985671179 120.68290930647512) rotate(330.1298266877678)"><path class="outline" fill="#A5ABB6" stroke="none" d="M 25 0.5 L 52.24657285595636 0.5 L 52.24657285595636 -0.5 L 25 -0.5 Z M 88.02001035595636 0.5 L 115.26658321191272 0.5 L 115.26658321191272 3.5 L 122.26658321191272 0 L 115.26658321191272 -3.5 L 115.26658321191272 -0.5 L 88.02001035595636 -0.5 Z"/><text text-anchor="middle" pointer-events="none" font-size="8px" fill="#000000" x="70.13329160595636" y="3" font-family="sans-serif">WROTE</text></g></g><g class="layer nodes"><g class="node" aria-label="graph-node177" transform="translate(20.15267049989659,193.69600021525784)"><circle class="outline" cx="0" cy="0" r="25" fill="#C990C0" stroke="#b261a5" stroke-width="2px"/><text class="caption" text-anchor="middle" pointer-events="none" x="0" y="0" font-size="10px" fill="#FFFFFF" font-family="sans-serif"> Stephen</text><text class="caption" text-anchor="middle" pointer-events="none" x="0" y="10" font-size="10px" fill="#FFFFFF" font-family="sans-serif"> McFe…</text></g><g class="node" aria-label="graph-node171" transform="translate(27.294570692047255,47.33879207120988)"><circle class="outline" cx="0" cy="0" r="25" fill="#F79767" stroke="#f36924" stroke-width="2px"/><text class="caption" text-anchor="middle" pointer-events="none" x="0" y="-5" font-size="10px" fill="#FFFFFF" font-family="sans-serif"> Captain</text><text class="caption" text-anchor="middle" pointer-events="none" x="0" y="5" font-size="10px" fill="#FFFFFF" font-family="sans-serif"> America:</text><text class="caption" text-anchor="middle" pointer-events="none" x="0" y="15" font-size="10px" fill="#FFFFFF" font-family="sans-serif"> Th</text></g><g class="node" aria-label="graph-node174" transform="translate(152.69004794358472,123.10914966099891)"><circle class="outline" cx="0" cy="0" r="25" fill="#C990C0" stroke="#b261a5" stroke-width="2px"/><text class="caption" text-anchor="middle" pointer-events="none" x="0" y="0" font-size="10px" fill="#FFFFFF" font-family="sans-serif"> Hugo</text><text class="caption" text-anchor="middle" pointer-events="none" x="0" y="10" font-size="10px" fill="#FFFFFF" font-family="sans-serif"> Weavi…</text></g><g class="node" aria-label="graph-node175" transform="translate(161.6357493879768,-12.512404053518344)"><circle class="outline" cx="0" cy="0" r="25" fill="#C990C0" stroke="#b261a5" stroke-width="2px"/><text class="caption" text-anchor="middle" pointer-events="none" x="0" y="0" font-size="10px" fill="#FFFFFF" font-family="sans-serif"> Joe</text><text class="caption" text-anchor="middle" pointer-events="none" x="0" y="10" font-size="10px" fill="#FFFFFF" font-family="sans-serif"> Johnst…</text></g><g class="node" aria-label="graph-node173" transform="translate(67.29240321438873,-94.97472979905795)"><circle class="outline" cx="0" cy="0" r="25" fill="#C990C0" stroke="#b261a5" stroke-width="2px"/><text class="caption" text-anchor="middle" pointer-events="none" x="0" y="0" font-size="10px" fill="#FFFFFF" font-family="sans-serif"> Tommy</text><text class="caption" text-anchor="middle" pointer-events="none" x="0" y="10" font-size="10px" fill="#FFFFFF" font-family="sans-serif"> J…</text></g><g class="node" aria-label="graph-node172" transform="translate(-41.67904012796439,-83.1850679551962)"><circle class="outline" cx="0" cy="0" r="25" fill="#C990C0" stroke="#b261a5" stroke-width="2px"/><text class="caption" text-anchor="middle" pointer-events="none" x="0" y="0" font-size="10px" fill="#FFFFFF" font-family="sans-serif"> Chris</text><text class="caption" text-anchor="middle" pointer-events="none" x="0" y="10" font-size="10px" fill="#FFFFFF" font-family="sans-serif"> Evans</text></g><g class="node" aria-label="graph-node176" transform="translate(-113.70324852097603,4.2877999162227125)"><circle class="outline" cx="0" cy="0" r="25" fill="#C990C0" stroke="#b261a5" stroke-width="2px"/><text class="caption" text-anchor="middle" pointer-events="none" x="0" y="5" font-size="10px" fill="#FFFFFF" font-family="sans-serif"> Christop…</text></g><g class="node" aria-label="graph-node178" transform="translate(-100.40854985671179,120.68290930647512)"><circle class="outline" cx="0" cy="0" r="25" fill="#C990C0" stroke="#b261a5" stroke-width="2px"/><text class="caption" text-anchor="middle" pointer-events="none" x="0" y="0" font-size="10px" fill="#FFFFFF" font-family="sans-serif"> Joe</text><text class="caption" text-anchor="middle" pointer-events="none" x="0" y="10" font-size="10px" fill="#FFFFFF" font-family="sans-serif"> Simon</text></g></g></svg>