<svg xmlns="http://www.w3.org/2000/svg" width="445.1418151855469" height="88.8192367553711" viewBox="-310.1891784667969 2.51479434967041 445.1418151855469 88.8192367553711"><title>Neo4j Graph Visualization</title><desc>Created using Neo4j (http://www.neo4j.com/)</desc><g class="layer relationships"><g class="relationship" transform="translate(105.95263010475901 34.733489464895285) rotate(534.5503399675702)"><path class="outline" fill="#A5ABB6" stroke="none" d="M 21.40063509461097,12.933012701892217 L 21.90063509461097,12.06698729810778 A 100.63029523067915 100.63029523067915 0 0 0 60.32494573921013,24.843888904574925 L 60.206782148976366,25.836883046522928 A 101.63029523067915 101.63029523067915 0 0 1 21.40063509461097,12.933012701892217 Z M 79.60367324017678,26.28000792641288 L 79.53097945813612,25.28265361923181 A 100.63029523067915 100.63029523067915 0 0 0 118.49867960426606,14.273784081658574 L 117.11888944897875,11.60991863322237 L 124.94433067649842,11.49825129406089 L 120.3383998113158,17.825604679573516 L 118.95860965602849,15.16173923113731 A 101.63029523067915 101.63029523067915 0 0 1 79.60367324017678,26.28000792641288"/><text text-anchor="middle" pointer-events="none" font-size="8px" fill="#000000" x="69.90604862787265" y="29.022510799746456" transform="rotate(180 69.90604862787265 26.022510799746456)" font-family="sans-serif">trek</text></g><g class="relationship" transform="translate(-40.525495543833884 48.70785109505108) rotate(533.4383874303657)"><path class="outline" fill="#A5ABB6" stroke="none" d="M 25 0.5 L 46.453938462058495 0.5 L 46.453938462058495 -0.5 L 25 -0.5 Z M 65.78987596205849 0.5 L 87.24381442411699 0.5 L 87.24381442411699 3.5 L 94.24381442411699 0 L 87.24381442411699 -3.5 L 87.24381442411699 -0.5 L 65.78987596205849 -0.5 Z"/><text text-anchor="middle" pointer-events="none" font-size="8px" fill="#000000" x="56.121907212058495" y="3" transform="rotate(180 56.121907212058495 0)" font-family="sans-serif">trek</text></g><g class="relationship" transform="translate(-158.9882092096739 62.33402991886129) rotate(180.64324542697028)"><path class="outline" fill="#A5ABB6" stroke="none" d="M 25 0.5 L 47.93637050645303 0.5 L 47.93637050645303 -0.5 L 25 -0.5 Z M 67.27230800645303 0.5 L 90.20867851290606 0.5 L 90.20867851290606 3.5 L 97.20867851290606 0 L 90.20867851290606 -3.5 L 90.20867851290606 -0.5 L 67.27230800645303 -0.5 Z"/><text text-anchor="middle" pointer-events="none" font-size="8px" fill="#000000" x="57.60433925645303" y="3" transform="rotate(180 57.60433925645303 0)" font-family="sans-serif">trek</text></g><g class="relationship" transform="translate(105.95263010475901 34.733489464895285) rotate(534.5503399675702)"><path class="outline" fill="#A5ABB6" stroke="none" d="M 25 0.5 L 59.06574533173338 0.5 L 59.06574533173338 -0.5 L 25 -0.5 Z M 81.07746408173338 0.5 L 115.14320941346676 0.5 L 115.14320941346676 3.5 L 122.14320941346676 0 L 115.14320941346676 -3.5 L 115.14320941346676 -0.5 L 81.07746408173338 -0.5 Z"/><text text-anchor="middle" pointer-events="none" font-size="8px" fill="#000000" x="70.07160470673338" y="3" transform="rotate(180 70.07160470673338 0)" font-family="sans-serif">road</text></g><g class="relationship" transform="translate(105.95263010475901 34.733489464895285) rotate(534.5503399675702)"><path class="outline" fill="#A5ABB6" stroke="none" d="M 21.40063509461097,-12.933012701892217 L 21.90063509461097,-12.06698729810778 A 100.63029523067915 100.63029523067915 0 0 1 39.795367670525266,-20.183347412596362 L 39.47319416437479,-21.13002805142591 A 101.63029523067915 101.63029523067915 0 0 0 21.40063509461097,-12.933012701892217 Z M 100.53057619217736,-22.524893081613115 L 100.2519703550305,-21.564487548774153 A 100.63029523067915 100.63029523067915 0 0 1 118.49867960426606,-14.273784081658574 L 117.11888944897875,-11.60991863322237 L 124.94433067649842,-11.49825129406089 L 120.3383998113158,-17.825604679573516 L 118.95860965602849,-15.16173923113731 A 101.63029523067915 101.63029523067915 0 0 0 100.53057619217736,-22.524893081613115"/><text text-anchor="middle" pointer-events="none" font-size="8px" fill="#000000" x="69.90604862787268" y="-23.022510799746456" transform="rotate(180 69.90604862787268 -26.022510799746456)" font-family="sans-serif">PublicTransport</text></g></g><g class="layer nodes"><g class="node" aria-label="graph-node1" transform="translate(105.95263010475901,34.733489464895285)"><circle class="outline" cx="0" cy="0" r="25" fill="#C990C0" stroke="#b261a5" stroke-width="2px"/><text class="caption" text-anchor="middle" pointer-events="none" x="0" y="5" font-size="10px" fill="#FFFFFF" font-family="sans-serif"> Darjeeling</text></g><g class="node" aria-label="graph-node3" transform="translate(-281.18918621688965,60.9620523852424)"><circle class="outline" cx="0" cy="0" r="25" fill="#F79767" stroke="#f36924" stroke-width="2px"/><text class="caption" text-anchor="middle" pointer-events="none" x="0" y="5" font-size="10px" fill="#FFFFFF" font-family="sans-serif"> Sandakp…</text></g><g class="node" aria-label="graph-node0" transform="translate(-40.525495543833884,48.70785109505108)"><circle class="outline" cx="0" cy="0" r="25" fill="#C990C0" stroke="#b261a5" stroke-width="2px"/><text class="caption" text-anchor="middle" pointer-events="none" x="0" y="5" font-size="10px" fill="#FFFFFF" font-family="sans-serif"> Rimbik</text></g><g class="node" aria-label="graph-node2" transform="translate(-158.9882092096739,62.33402991886129)"><circle class="outline" cx="0" cy="0" r="25" fill="#57C7E3" stroke="#23b3d7" stroke-width="2px"/><text class="caption" text-anchor="middle" pointer-events="none" x="0" y="5" font-size="10px" fill="#2A2C34" font-family="sans-serif"> BhikeBh…</text></g></g></svg>