<svg xmlns="http://www.w3.org/2000/svg" width="516.0826416015625" height="98.5624008178711" viewBox="-339.19915771484375 -65.622314453125 516.0826416015625 98.5624008178711"><title>Neo4j Graph Visualization</title><desc>Created using Neo4j (http://www.neo4j.com/)</desc><g class="layer relationships"><g class="relationship" transform="translate(147.88345647503508 -29.117014847205176) rotate(536.7685066886213)"><path class="outline" fill="#A5ABB6" stroke="none" d="M 21.40063509461097,12.933012701892217 L 21.90063509461097,12.06698729810778 A 126.83753889170474 126.83753889170474 0 0 0 73.22815048607742,28.48235844240598 L 73.1328218147705,29.477804294487782 A 127.83753889170474 127.83753889170474 0 0 1 21.40063509461097,12.933012701892217 Z M 92.52233303034735,29.85691173043071 L 92.46598863767264,28.85850033755996 A 126.83753889170474 126.83753889170474 0 0 0 144.3959428773838,14.46203901097713 L 142.99864664663554,11.80731430895306 L 150.82318322056466,11.644135256235266 L 146.25900451838143,18.00167194700922 L 144.86170828763318,15.346947244985152 A 127.83753889170474 127.83753889170474 0 0 1 92.52233303034735,29.85691173043071"/><text text-anchor="middle" pointer-events="none" font-size="8px" fill="#000000" x="82.83015235816613" y="32.53566251376476" transform="rotate(180 82.83015235816613 29.535662513764763)" font-family="sans-serif">trek</text></g><g class="relationship" transform="translate(-24.787436594416146 -19.368002944680075) rotate(538.2993862102633)"><path class="outline" fill="#A5ABB6" stroke="none" d="M 25 0.5 L 47.72805838160064 0.5 L 47.72805838160064 -0.5 L 25 -0.5 Z M 67.06399588160065 0.5 L 89.79205426320128 0.5 L 89.79205426320128 3.5 L 96.79205426320128 0 L 89.79205426320128 -3.5 L 89.79205426320128 -0.5 L 67.06399588160065 -0.5 Z"/><text text-anchor="middle" pointer-events="none" font-size="8px" fill="#000000" x="57.39602713160064" y="3" transform="rotate(180 57.39602713160064 0)" font-family="sans-serif">trek</text></g><g class="relationship" transform="translate(-146.52584660438913 -15.753585993873834) rotate(533.1389817676396)"><path class="outline" fill="#A5ABB6" stroke="none" d="M 25 0.5 L 69.25896146340432 0.5 L 69.25896146340432 -0.5 L 25 -0.5 Z M 88.59489896340432 0.5 L 132.85386042680864 0.5 L 132.85386042680864 3.5 L 139.85386042680864 0 L 132.85386042680864 -3.5 L 132.85386042680864 -0.5 L 88.59489896340432 -0.5 Z"/><text text-anchor="middle" pointer-events="none" font-size="8px" fill="#000000" x="78.92693021340432" y="3" transform="rotate(180 78.92693021340432 0)" font-family="sans-serif">trek</text></g><g class="relationship" transform="translate(147.88345647503508 -29.117014847205176) rotate(536.7685066886213)"><path class="outline" fill="#A5ABB6" stroke="none" d="M 25 0.5 L 71.96708516038261 0.5 L 71.96708516038261 -0.5 L 25 -0.5 Z M 93.97880391038261 0.5 L 140.94588907076522 0.5 L 140.94588907076522 3.5 L 147.94588907076522 0 L 140.94588907076522 -3.5 L 140.94588907076522 -0.5 L 93.97880391038261 -0.5 Z"/><text text-anchor="middle" pointer-events="none" font-size="8px" fill="#000000" x="82.97294453538261" y="3" transform="rotate(180 82.97294453538261 0)" font-family="sans-serif">road</text></g><g class="relationship" transform="translate(147.88345647503508 -29.117014847205176) rotate(536.7685066886213)"><path class="outline" fill="#A5ABB6" stroke="none" d="M 21.40063509461097,-12.933012701892217 L 21.90063509461097,-12.06698729810778 A 126.83753889170474 126.83753889170474 0 0 1 52.47623020294361,-24.734036209086625 L 52.217291290816334,-25.699929909131484 A 127.83753889170474 127.83753889170474 0 0 0 21.40063509461097,-12.933012701892217 Z M 113.5695531369707,-26.899501080327838 L 113.34856837113881,-25.924223820636925 A 126.83753889170474 126.83753889170474 0 0 1 144.3959428773838,-14.46203901097713 L 142.99864664663554,-11.80731430895306 L 150.82318322056466,-11.644135256235266 L 146.25900451838143,-18.00167194700922 L 144.86170828763318,-15.346947244985152 A 127.83753889170474 127.83753889170474 0 0 0 113.5695531369707,-26.899501080327838"/><text text-anchor="middle" pointer-events="none" font-size="8px" fill="#000000" x="82.83015235816616" y="-26.535662513764763" transform="rotate(180 82.83015235816616 -29.535662513764763)" font-family="sans-serif">PublicTransport</text></g></g><g class="layer nodes"><g class="node" aria-label="graph-node1" transform="translate(147.88345647503508,-29.117014847205176)"><circle class="outline" cx="0" cy="0" r="25" fill="#C990C0" stroke="#b261a5" stroke-width="2px"/><text class="caption" text-anchor="middle" pointer-events="none" x="0" y="5" font-size="10px" fill="#FFFFFF" font-family="sans-serif"> Darjeeling</text></g><g class="node" aria-label="graph-node3" transform="translate(-310.19916355758795,3.9400834244803846)"><circle class="outline" cx="0" cy="0" r="25" fill="#F79767" stroke="#f36924" stroke-width="2px"/><text class="caption" text-anchor="middle" pointer-events="none" x="0" y="5" font-size="10px" fill="#FFFFFF" font-family="sans-serif"> Sandakp…</text></g><g class="node" aria-label="graph-node0" transform="translate(-24.787436594416146,-19.368002944680075)"><circle class="outline" cx="0" cy="0" r="25" fill="#C990C0" stroke="#b261a5" stroke-width="2px"/><text class="caption" text-anchor="middle" pointer-events="none" x="0" y="5" font-size="10px" fill="#FFFFFF" font-family="sans-serif"> Rimbik</text></g><g class="node" aria-label="graph-node2" transform="translate(-146.52584660438913,-15.753585993873834)"><circle class="outline" cx="0" cy="0" r="25" fill="#57C7E3" stroke="#23b3d7" stroke-width="2px"/><text class="caption" text-anchor="middle" pointer-events="none" x="0" y="5" font-size="10px" fill="#2A2C34" font-family="sans-serif"> BhikeBh…</text></g></g></svg>