<svg xmlns="http://www.w3.org/2000/svg" width="529.0064697265625" height="198.7147216796875" viewBox="-375.0863952636719 -105.53993225097656 529.0064697265625 198.7147216796875"><title>Neo4j Graph Visualization</title><desc>Created using Neo4j (http://www.neo4j.com/)</desc><g class="layer relationships"><g class="relationship" transform="translate(98.15040038312195 -76.53993392282126) rotate(439.2287231010986)"><path class="outline" fill="#A5ABB6" stroke="none" d="M 25 0.5 L 50.8965594391355 0.5 L 50.8965594391355 -0.5 L 25 -0.5 Z M 85.3418719391355 0.5 L 111.238431378271 0.5 L 111.238431378271 3.5 L 118.238431378271 0 L 111.238431378271 -3.5 L 111.238431378271 -0.5 L 85.3418719391355 -0.5 Z"/><text text-anchor="middle" pointer-events="none" font-size="8px" fill="#000000" x="68.1192156891355" y="3" font-family="sans-serif">ORIGIN</text></g><g class="relationship" transform="translate(98.15040038312195 -76.53993392282126) rotate(522.1853832287093)"><path class="outline" fill="#A5ABB6" stroke="none" d="M 25 0.5 L 40.35624492605352 0.5 L 40.35624492605352 -0.5 L 25 -0.5 Z M 99.54374492605352 0.5 L 114.89998985210704 0.5 L 114.89998985210704 3.5 L 121.89998985210704 0 L 114.89998985210704 -3.5 L 114.89998985210704 -0.5 L 99.54374492605352 -0.5 Z"/><text text-anchor="middle" pointer-events="none" font-size="8px" fill="#000000" x="69.94999492605352" y="3" transform="rotate(180 69.94999492605352 0)" font-family="sans-serif">DESTINATION</text></g><g class="relationship" transform="translate(-191.18707124037573 -16.155687264645508) rotate(354.10206440668526)"><path class="outline" fill="#A5ABB6" stroke="none" d="M 25 0.5 L 54.41565398586796 0.5 L 54.41565398586796 -0.5 L 25 -0.5 Z M 88.86096648586796 0.5 L 118.27662047173592 0.5 L 118.27662047173592 3.5 L 125.27662047173592 0 L 118.27662047173592 -3.5 L 118.27662047173592 -0.5 L 88.86096648586796 -0.5 Z"/><text text-anchor="middle" pointer-events="none" font-size="8px" fill="#000000" x="71.63831023586796" y="3" font-family="sans-serif">ORIGIN</text></g><g class="relationship" transform="translate(-191.18707124037573 -16.155687264645508) rotate(189.91489598822557)"><path class="outline" fill="#A5ABB6" stroke="none" d="M 25 0.5 L 45.530175384159904 0.5 L 45.530175384159904 -0.5 L 25 -0.5 Z M 104.7176753841599 0.5 L 125.24785076831981 0.5 L 125.24785076831981 3.5 L 132.2478507683198 0 L 125.24785076831981 -3.5 L 125.24785076831981 -0.5 L 104.7176753841599 -0.5 Z"/><text text-anchor="middle" pointer-events="none" font-size="8px" fill="#000000" x="75.1239253841599" y="3" transform="rotate(180 75.1239253841599 0)" font-family="sans-serif">DESTINATION</text></g></g><g class="layer nodes"><g class="node" aria-label="graph-node31" transform="translate(124.92006724524605,64.17478868927269)"><circle class="outline" cx="0" cy="0" r="25" fill="#F16667" stroke="#eb2728" stroke-width="2px"/><text class="caption" text-anchor="middle" pointer-events="none" x="0" y="5" font-size="10px" fill="#FFFFFF" font-family="sans-serif"> MSN</text></g><g class="node" aria-label="graph-node78" transform="translate(-346.0863615212287,-43.23144102596905)"><circle class="outline" cx="0" cy="0" r="25" fill="#F16667" stroke="#eb2728" stroke-width="2px"/><text class="caption" text-anchor="middle" pointer-events="none" x="0" y="5" font-size="10px" fill="#FFFFFF" font-family="sans-serif"> GRR</text></g><g class="node" aria-label="graph-node281" transform="translate(98.15040038312195,-76.53993392282126)"><circle class="outline" cx="0" cy="0" r="25" fill="#D9C8AE" stroke="#c0a378" stroke-width="2px"/><text class="caption" text-anchor="middle" pointer-events="none" x="0" y="5" font-size="10px" fill="#2A2C34" font-family="sans-serif"> 11/30/20…</text></g><g class="node" aria-label="graph-node17" transform="translate(-41.70593702984285,-31.597616403804818)"><circle class="outline" cx="0" cy="0" r="25" fill="#F16667" stroke="#eb2728" stroke-width="2px"/><text class="caption" text-anchor="middle" pointer-events="none" x="0" y="5" font-size="10px" fill="#FFFFFF" font-family="sans-serif"> ORD</text></g><g class="node" aria-label="graph-node861" transform="translate(-191.18707124037573,-16.155687264645508)"><circle class="outline" cx="0" cy="0" r="25" fill="#D9C8AE" stroke="#c0a378" stroke-width="2px"/><text class="caption" text-anchor="middle" pointer-events="none" x="0" y="5" font-size="10px" fill="#2A2C34" font-family="sans-serif"> 11/17/20…</text></g></g></svg>